<svg xmlns="http://www.w3.org/2000/svg" width="24" height="24" viewBox="0 0 24 24" fill="none">
  <path d="M16.5294 4.21934C16.6698 4.35997 16.7487 4.55059 16.7487 4.74934C16.7487 4.94809 16.6698 5.13871 16.5294 5.27934L9.80936 11.9993L16.5294 18.7193C16.603 18.788 16.6621 18.8708 16.7031 18.9628C16.7441 19.0548 16.7662 19.1541 16.7679 19.2548C16.7697 19.3555 16.7512 19.4555 16.7135 19.5489C16.6758 19.6423 16.6196 19.7272 16.5484 19.7984C16.4772 19.8696 16.3923 19.9257 16.299 19.9635C16.2056 20.0012 16.1055 20.0197 16.0048 20.0179C15.9041 20.0162 15.8048 19.9941 15.7128 19.9531C15.6208 19.9121 15.538 19.853 15.4694 19.7793L8.21936 12.5293C8.07891 12.3887 8.00002 12.1981 8.00002 11.9993C8.00002 11.8006 8.07891 11.61 8.21936 11.4693L15.4694 4.21934C15.61 4.07889 15.8006 4 15.9994 4C16.1981 4 16.3887 4.07889 16.5294 4.21934Z" fill="#7A7878"/>
</svg>